<?xml version="1.0" standalone="no"?>
<!DOCTYPE svg PUBLIC "-//W3C//DTD SVG 20010904//EN"
 "http://www.w3.org/TR/2001/REC-SVG-20010904/DTD/svg10.dtd">
<svg version="1.0" xmlns="http://www.w3.org/2000/svg"
 width="500.000000pt" height="500.000000pt" viewBox="0 0 500.000000 500.000000"
 preserveAspectRatio="xMidYMid meet">
<metadata>
Created by potrace 1.14, written by Peter Selinger 2001-2017
</metadata>
<g transform="translate(0.000000,500.000000) scale(0.100000,-0.100000)"
fill="#000000" stroke="none">
<path d="M2238 3599 c-110 -22 -149 -34 -218 -70 -69 -36 -87 -48 -119 -76
-14 -13 -29 -23 -33 -23 -15 0 -94 -117 -135 -200 -41 -83 -87 -226 -98 -305
-4 -22 -8 -48 -11 -57 -10 -32 -18 -90 -29 -198 l-6 -56 43 -34 c104 -84 165
-123 270 -174 102 -48 243 -97 323 -111 17 -2 41 -7 55 -11 14 -3 95 -8 180
-11 202 -7 306 8 500 73 78 27 260 112 295 138 11 9 53 41 94 73 l73 58 -6 70
c-3 38 -8 81 -11 95 -3 14 -8 41 -10 60 -3 19 -7 44 -9 55 -25 161 -126 411
-199 495 -39 45 -146 121 -210 149 -72 33 -164 58 -257 71 -110 15 -384 9
-482 -11z"/>
<path d="M826 2708 c3 -40 6 -80 6 -88 0 -37 43 -215 76 -315 76 -229 205
-436 379 -608 112 -110 129 -124 279 -224 97 -66 174 -104 304 -153 47 -18 94
-36 105 -41 27 -11 175 -46 260 -61 78 -13 395 -17 493 -5 34 4 84 12 110 18
26 6 58 13 72 15 116 21 480 162 480 186 0 4 5 8 11 8 26 0 232 156 320 243
88 87 209 234 209 256 0 5 7 15 16 22 9 7 20 22 25 34 5 11 18 34 28 50 25 39
76 159 113 265 30 84 35 102 44 150 2 14 6 34 9 46 15 68 32 229 27 256 -3 14
-18 7 -85 -36 -90 -57 -175 -100 -282 -141 -38 -15 -79 -31 -90 -36 -41 -17
-165 -58 -165 -53 0 3 -8 0 -17 -5 -10 -5 -31 -11 -48 -14 -70 -12 -67 -3 -51
-159 2 -15 -3 -33 -10 -39 -8 -6 -14 -17 -14 -24 0 -30 -191 -187 -290 -238
-106 -56 -300 -118 -415 -133 -22 -3 -51 -7 -65 -10 -34 -6 -299 -5 -330 1
-13 2 -42 7 -65 10 -168 25 -405 119 -504 200 -74 62 -158 136 -172 152 -32
39 -36 75 -24 201 1 17 0 32 -4 33 -11 1 -34 7 -111 28 -145 40 -431 158 -510
211 -14 9 -47 29 -73 44 l-48 28 7 -74z"/>
</g>
</svg>
